# xmcd
#
# Track frame offsets:
#	150
#	17440
#	30595
#	45470
#	62270
#	73650
#	87800
#	100262
#	114590
#	129892
#
# Disc length: 1942 seconds
#
# Revision: 4
# Processed by: cddbd v1.5.2PL0 Copyright (c) Steve Scherf et al.
# Submitted via: audiograbber 1.83.01
#
DISCID=6f07940a
DTITLE=James Blundell - James Blundell
DYEAR=1989
DGENRE=Country
TTITLE0=Dancers
TTITLE1=Rainbows
TTITLE2=Another Saturday Night
TTITLE3=Kimberley Moon
TTITLE4=Bandy
TTITLE5=A Fool Such As I
TTITLE6=The Great Divide
TTITLE7=Texas
TTITLE8=Cloncurry Cattle Song
TTITLE9=Perfect World (with Donna Fisk)
EXTD=
EXTT0=
EXTT1=
EXTT2=
EXTT3=
EXTT4=
EXTT5=
EXTT6=
EXTT7=
EXTT8=
EXTT9=
PLAYORDER=
